<svg width="20" height="20" viewBox="0 0 20 20" fill="none" xmlns="http://www.w3.org/2000/svg">
<g id="india 1">
<path id="Vector" d="M20 3.3335H0V16.6665H20V3.3335Z" fill="#F0F0F0"/>
<path id="Vector_2" d="M20 3.3335H0V7.77784H20V3.3335Z" fill="#FF9811"/>
<path id="Vector_3" d="M20 12.2222H0V16.6665H20V12.2222Z" fill="#6DA544"/>
<path id="Vector_4" d="M10.0001 11.7147C10.9471 11.7147 11.7148 10.947 11.7148 9.99996C11.7148 9.05297 10.9471 8.28528 10.0001 8.28528C9.05309 8.28528 8.2854 9.05297 8.2854 9.99996C8.2854 10.947 9.05309 11.7147 10.0001 11.7147Z" fill="#0052B4"/>
<path id="Vector_5" d="M10.0001 11.0716C10.592 11.0716 11.0718 10.5919 11.0718 9.99999C11.0718 9.40814 10.592 8.92834 10.0001 8.92834C9.40826 8.92834 8.92847 9.40814 8.92847 9.99999C8.92847 10.5919 9.40826 11.0716 10.0001 11.0716Z" fill="#F0F0F0"/>
<path id="Vector_6" d="M10 8.67761L10.3306 9.42742L11.1453 9.33882L10.6612 10L11.1453 10.6612L10.3306 10.5727L10 11.3225L9.66938 10.5727L8.85474 10.6612L9.3388 10L8.85474 9.33882L9.66938 9.42742L10 8.67761Z" fill="#0052B4"/>
</g>
</svg>
