<svg width="16" height="17" viewBox="0 0 16 17" fill="none" xmlns="http://www.w3.org/2000/svg">
<path fill-rule="evenodd" clip-rule="evenodd" d="M2.82617 7.42756C2.83578 4.6005 5.13535 2.31651 7.9624 2.32608C10.7895 2.33571 13.0735 4.63528 13.0639 7.46234V7.52031C13.0291 9.35799 12.003 11.0565 10.745 12.3841C10.0256 13.1312 9.22218 13.7926 8.35081 14.3551C8.11781 14.5566 7.77221 14.5566 7.53922 14.3551C6.24022 13.5096 5.10013 12.4421 4.1711 11.2015C3.34307 10.1196 2.87295 8.80651 2.82617 7.44495V7.42756Z" stroke="white" stroke-width="1.5" stroke-linecap="round" stroke-linejoin="round"/>
<path d="M7.94487 9.16671C8.85098 9.16671 9.58553 8.43216 9.58553 7.52604C9.58553 6.61993 8.85098 5.88538 7.94487 5.88538C7.03875 5.88538 6.3042 6.61993 6.3042 7.52604C6.3042 8.43216 7.03875 9.16671 7.94487 9.16671Z" stroke="white" stroke-width="1.5" stroke-linecap="round" stroke-linejoin="round"/>
</svg>
