<svg width="20" height="20" viewBox="0 0 20 20" fill="none" xmlns="http://www.w3.org/2000/svg">
<path d="M17.8429 8.3186L17.8332 8.36715V8.39931L17.7898 8.42098L17.734 8.47543L14.3173 11.8088L14.1284 11.9931L14.174 12.2531L15.0069 17.0005C15.0405 17.2069 14.9177 17.3679 14.7716 17.4167H14.7714H14.7711H14.7708H14.7705H14.7703H14.77H14.7697H14.7695H14.7692H14.7689H14.7687H14.7684H14.7681H14.7679H14.7676H14.7674H14.7671H14.7668H14.7666H14.7663H14.766H14.7658H14.7655H14.7653H14.765H14.7648H14.7645H14.7642H14.764H14.7637H14.7635H14.7632H14.763H14.7627H14.7625H14.7622H14.7619H14.7617H14.7614H14.7612H14.7609H14.7607H14.7604H14.7602H14.7599H14.7597H14.7594H14.7592H14.7589H14.7587H14.7584H14.7582H14.7579H14.7577H14.7574H14.7572H14.7569H14.7567H14.7565H14.7562H14.756H14.7557H14.7555H14.7552H14.755H14.7547H14.7545H14.7542H14.754H14.7537H14.7535H14.7533H14.753H14.7528H14.7525H14.7523H14.752H14.7518H14.7515H14.7513H14.7511H14.7508H14.7506H14.7503H14.7501H14.7498H14.7496H14.7493H14.7491H14.7489H14.7486H14.7484H14.7481H14.7479H14.7476H14.7474H14.7472H14.7469H14.7467H14.7464H14.7462H14.7459H14.7457H14.7454H14.7452H14.7449H14.7447H14.7445H14.7442H14.744H14.7437H14.7435H14.7432H14.743H14.7427H14.7425H14.7422H14.742H14.7417H14.7415H14.7412H14.741H14.7407H14.7405H14.7402H14.74H14.7397H14.7395H14.7392H14.739H14.7387H14.7385H14.7382H14.738H14.7377H14.7375H14.7372H14.737H14.7367H14.7365H14.7362H14.7359H14.7357H14.7354H14.7352H14.7349H14.7347H14.7344H14.7341H14.7339H14.7336H14.7334H14.7331H14.7328H14.7326H14.7323H14.7321H14.7318H14.7315H14.7313H14.731H14.7307H14.7305H14.7302H14.7299H14.7297H14.7294H14.7291H14.7289H14.7286H14.7283H14.7281H14.7278H14.7275H14.7272H14.727H14.7267H14.7264H14.7261H14.7259H14.7256H14.7253H14.725H14.7247H14.7245H14.7242H14.7239H14.7236H14.7233H14.7231H14.7228H14.7225H14.7222H14.7219H14.7216H14.7213H14.721H14.7207H14.7205H14.7202H14.7199H14.7196H14.7193H14.719H14.7187H14.7184H14.7181H14.7178H14.7175H14.7172H14.7169H14.7166H14.7163H14.716H14.7157H14.7154H14.7151H14.7148H14.7144H14.7141H14.7138H14.7135H14.7132H14.7129H14.7126H14.7123H14.7119H14.7116H14.7113H14.711H14.7107H14.7103H14.71H14.7097H14.7094H14.709H14.7087H14.7084H14.708H14.7077H14.7074H14.707H14.7067H14.7064H14.706H14.7057H14.7053H14.705H14.7047H14.7043H14.704H14.7036H14.7033H14.7029H14.7026H14.7022H14.7019H14.7015H14.7012H14.7008H14.7005H14.7001H14.6997H14.6994H14.699H14.6987H14.6983H14.6979H14.6975H14.6972H14.6968H14.6964H14.6961H14.6957H14.6953H14.6949H14.6946H14.6942H14.6938H14.6934H14.693H14.6926H14.6922H14.6919H14.6915H14.6911H14.6907H14.6903H14.6899H14.6895H14.6891H14.6887H14.6883H14.6879H14.6875H14.6871H14.6867H14.6862H14.6858H14.6854H14.685H14.6846H14.6842H14.6838H14.6833H14.6829H14.6825H14.6821H14.6816H14.6812H14.6808H14.6803H14.6799H14.6795H14.679H14.6786H14.6781H14.6777H14.6772H14.6768H14.6763H14.6759H14.6754H14.675H14.6745H14.6741H14.6736H14.6732H14.6727H14.6722H14.6718H14.6713H14.6708H14.6704H14.6699H14.6694H14.6689H14.6684H14.668H14.6675H14.667H14.6665C14.6233 17.4167 14.5898 17.4166 14.5589 17.4156C14.5463 17.4152 14.5356 17.4147 14.5266 17.4141L14.4838 17.3914L10.2338 15.1414L9.99984 15.0176L9.76589 15.1414L5.51589 17.3914L5.50407 17.3977L5.49259 17.4046C5.35355 17.488 5.15482 17.4627 5.0235 17.2613C5.00735 17.2218 5.00104 17.1709 5 17.0426L5.82565 12.3364L5.87126 12.0764L5.68233 11.8921L2.26828 8.56132C2.13199 8.42345 2.13258 8.24102 2.27006 8.10354L2.32743 8.04617L2.34807 8.0049C2.36235 8.00242 2.3845 7.99999 2.4165 7.99999H2.45142L2.486 7.99514L7.236 7.32847L7.50113 7.29126L7.61713 7.04997L9.68894 2.74061C9.82025 2.53747 10.0198 2.51172 10.1593 2.5954L10.1757 2.60528L10.1929 2.61387C10.2454 2.64011 10.2584 2.65316 10.2608 2.65554L10.2609 2.65563L10.261 2.65571C10.2633 2.65808 10.2764 2.6711 10.3026 2.7236L10.7472 2.50131L10.3026 2.7236L12.4693 7.05693L12.5868 7.29195L12.847 7.32847L17.597 7.99514L17.6316 7.99999H17.6665C17.667 7.99999 17.7179 8.00405 17.7789 8.09041C17.8392 8.17597 17.8531 8.2677 17.8429 8.3186Z" fill="#F2A742" stroke="#D27D39"/>
</svg>
