<svg width="100" height="30" viewBox="0 0 100 30" fill="none" xmlns="http://www.w3.org/2000/svg">
<g id="amazon 1" clip-path="url(#clip0_207_3511)">
<g id="Group">
<path id="Path 19" fill-rule="evenodd" clip-rule="evenodd" d="M62.035 23.4616C56.2455 27.7275 47.8245 30.0001 40.5613 30.0001C30.3859 30.0001 21.2631 26.2588 14.3157 20.0351C13.7894 19.5457 14.2456 18.8813 14.9122 19.2658C22.3859 23.6015 31.614 26.1889 41.1578 26.1889C47.5788 26.1889 54.6665 24.8603 61.1928 22.098C62.175 21.7134 62.9823 22.7623 62.0349 23.4616H62.035Z" fill="#FF9900"/>
<path id="Path 20" fill-rule="evenodd" clip-rule="evenodd" d="M64.4563 20.6994C63.7197 19.7553 59.544 20.2448 57.6844 20.4896C57.123 20.5595 57.0177 20.07 57.5441 19.7203C60.8774 17.3777 66.316 18.0769 66.9476 18.8462C67.5792 19.6154 66.7722 25.0696 63.6488 27.6573C63.1577 28.0419 62.7015 27.8321 62.9122 27.3077C63.6142 25.5594 65.1932 21.6781 64.4563 20.6994Z" fill="#FF9900"/>
<path id="Path 21" fill-rule="evenodd" clip-rule="evenodd" d="M57.7897 3.28723V1.01394C57.7857 0.939421 57.7975 0.864903 57.8243 0.795226C57.8511 0.72555 57.8923 0.662273 57.9453 0.609507C57.9982 0.556742 58.0617 0.515671 58.1316 0.48896C58.2016 0.462249 58.2763 0.450497 58.3511 0.454468H68.5266C68.6798 0.451255 68.8281 0.508071 68.9396 0.612696C69.0512 0.71732 69.1171 0.861396 69.1231 1.01394V2.93702C69.1231 3.2517 68.8425 3.67106 68.3512 4.37064L63.0881 11.8532C65.0531 11.8182 67.1235 12.0979 68.8776 13.0766C69.2635 13.2864 69.3687 13.6361 69.4039 13.9507V16.3633C69.4039 16.713 69.053 17.0973 68.6673 16.8878C65.5445 15.2444 61.369 15.0696 57.9305 16.9228C57.5796 17.0976 57.1939 16.748 57.1939 16.3983V14.0908C57.1939 13.7412 57.1939 13.1121 57.5798 12.5524L63.6851 3.84617H58.3862C58.2332 3.84939 58.0849 3.79264 57.9734 3.68813C57.8618 3.58362 57.7959 3.43968 57.7897 3.28723ZM20.702 17.3776H17.6143C17.4759 17.3636 17.346 17.3048 17.2445 17.21C17.1431 17.1152 17.0757 16.9898 17.0529 16.8531V1.04893C17.0589 0.896413 17.1248 0.752354 17.2364 0.647732C17.3479 0.54311 17.4962 0.486281 17.6493 0.489466H20.5265C20.6688 0.49161 20.8052 0.546541 20.909 0.643525C21.0128 0.740509 21.0766 0.872581 21.088 1.01394V3.07692H21.1581C21.8947 1.08394 23.3336 0.139894 25.2283 0.139894C27.1581 0.139894 28.3861 1.08394 29.2283 3.07692C29.965 1.08394 31.6845 0.139894 33.5093 0.139894C34.8075 0.139894 36.211 0.664361 37.0883 1.88819C38.0704 3.21681 37.8602 5.13989 37.8602 6.85319V16.8532C37.8541 17.0057 37.7883 17.1498 37.6767 17.2544C37.5652 17.359 37.4169 17.4158 37.2638 17.4127H34.2108C33.895 17.3777 33.6493 17.133 33.6493 16.8532V8.46149C33.6493 7.79713 33.7195 6.11883 33.5792 5.48947C33.3336 4.44053 32.667 4.12585 31.7546 4.12585C31.3518 4.13728 30.9611 4.26584 30.6307 4.49571C30.3003 4.72557 30.0445 5.04671 29.8949 5.41957C29.5791 6.22372 29.6143 7.55245 29.6143 8.46149V16.8532C29.6082 17.0057 29.5423 17.1498 29.4308 17.2544C29.3192 17.359 29.171 17.4158 29.0178 17.4127H25.9301C25.6143 17.3777 25.3687 17.133 25.3687 16.8532V8.46149C25.3687 6.71319 25.6493 4.09085 23.474 4.09085C21.2635 4.09085 21.3336 6.6083 21.3336 8.46149V16.8532C21.3115 17.0027 21.2349 17.1389 21.1184 17.2357C21.0019 17.3325 20.8536 17.383 20.702 17.3777V17.3776ZM77.895 0.139894C82.4915 0.139894 84.9828 4.05596 84.9828 9.05596C84.9828 13.8812 82.246 17.7272 77.895 17.7272C73.4038 17.7272 70.9476 13.8112 70.9476 8.91606C70.9125 3.98596 73.4038 0.139469 77.895 0.139469V0.139894ZM77.895 3.39159C75.6143 3.39159 75.474 6.50351 75.474 8.42659C75.474 10.3497 75.4389 14.4755 77.86 14.4755C80.246 14.4755 80.3863 11.1538 80.3863 9.12585C80.3863 7.79713 80.3161 6.18883 79.9301 4.93C79.5792 3.81106 78.8775 3.39159 77.895 3.39159ZM90.9125 17.3776H87.8248C87.509 17.3426 87.2634 17.0979 87.2634 16.8181V0.978721C87.2827 0.834339 87.3537 0.701766 87.4633 0.605401C87.5729 0.509035 87.7138 0.455361 87.8599 0.454254H90.7371C90.8676 0.458839 90.993 0.505706 91.0943 0.587743C91.1957 0.669779 91.2674 0.782509 91.2986 0.90883V3.32138H91.3687C92.2459 1.15351 93.4389 0.139572 95.5793 0.139572C96.9477 0.139572 98.3161 0.628936 99.1933 1.99277C100 3.25149 100 5.38436 100 6.92287V16.8879C99.9791 17.0285 99.9064 17.1563 99.7963 17.2467C99.6861 17.337 99.5463 17.3835 99.4037 17.3772H96.3158C96.0351 17.3422 95.7895 17.1326 95.7544 16.8879V8.2867C95.7544 6.5384 95.9649 4.02074 93.8245 4.02074C93.0879 4.02074 92.386 4.5101 92.0351 5.27947C91.614 6.25819 91.544 7.20255 91.544 8.28649V16.8184C91.5244 16.972 91.4496 17.1133 91.3335 17.2161C91.2174 17.319 91.0678 17.3765 90.9124 17.3779L90.9125 17.3776ZM49.6847 9.82521C49.6847 11.014 49.7198 12.028 49.1232 13.1124C48.6321 13.9866 47.8601 14.5111 46.9829 14.5111C45.7899 14.5111 45.0882 13.602 45.0882 12.2733C45.0882 9.65096 47.439 9.16138 49.6847 9.16138V9.82521ZM52.8075 17.3427C52.7075 17.4296 52.5826 17.4832 52.4505 17.4957C52.3183 17.5083 52.1855 17.4792 52.0709 17.4126C51.0534 16.5734 50.8432 16.1538 50.2814 15.3496C48.5972 17.0623 47.3691 17.5873 45.1937 17.5873C42.5972 17.5873 40.5621 15.9789 40.5621 12.7971C40.5621 10.2797 41.9305 8.60138 43.8609 7.76213C45.5451 7.02808 47.8963 6.88798 49.6854 6.67819V6.29362C49.6854 5.55957 49.7555 4.68521 49.2995 4.05585C48.9135 3.49638 48.2117 3.2517 47.5807 3.2517C46.3877 3.2517 45.3351 3.84606 45.0894 5.10489C45.0193 5.38457 44.8439 5.66436 44.5631 5.66436L41.5807 5.34968C41.3351 5.27979 41.0544 5.105 41.1245 4.72032C41.8262 1.08394 45.0894 0 48.0368 0C49.5455 0 51.5104 0.384574 52.7034 1.5384C54.2122 2.93702 54.0718 4.82564 54.0718 6.85309V11.6433C54.0718 13.0769 54.6682 13.7063 55.2297 14.5104C55.4402 14.7901 55.4752 15.1398 55.2297 15.3146C54.563 15.839 53.4402 16.8181 52.8087 17.3426L52.8075 17.3427ZM9.15815 9.82521C9.15815 11.014 9.19327 12.028 8.59672 13.1124C8.10564 13.9866 7.33358 14.5111 6.45636 14.5111C5.26336 14.5111 4.56165 13.602 4.56165 12.2733C4.56165 9.65096 6.91253 9.16138 9.15815 9.16138V9.82521ZM12.2459 17.3427C12.1459 17.4296 12.021 17.4832 11.8888 17.4957C11.7567 17.5083 11.6239 17.4792 11.5092 17.4126C10.4917 16.5734 10.2815 16.1538 9.7198 15.3496C8.03561 17.0623 6.80748 17.5873 4.63211 17.5873C2.03558 17.5873 0.000488281 15.9789 0.000488281 12.7971C0.000488281 10.2797 1.36889 8.60138 3.29926 7.76213C4.98344 7.02808 7.33464 6.88798 9.12377 6.67819V6.29362C9.12377 5.55957 9.19391 4.68521 8.73785 4.05585C8.35192 3.49638 7.65011 3.2517 7.01907 3.2517C5.82607 3.2517 4.77346 3.84606 4.52781 5.10489C4.45767 5.38457 4.28227 5.66436 4.0015 5.66436L1.01905 5.34968C0.773511 5.27979 0.492742 5.105 0.562881 4.72032C1.26459 1.08394 4.52781 0 7.47514 0C8.98392 0 10.9488 0.384574 12.1418 1.5384C13.6506 2.93702 13.5102 4.82564 13.5102 6.85309V11.6433C13.5102 13.0769 14.1066 13.7063 14.6681 14.5104C14.8786 14.7901 14.9136 15.1398 14.6681 15.3146C14.0014 15.839 12.8786 16.8181 12.247 17.3426L12.2459 17.3427Z" fill="white"/>
</g>
</g>
<defs>
<clipPath id="clip0_207_3511">
<rect width="100" height="30" fill="white"/>
</clipPath>
</defs>
</svg>
